<svg width="964" height="328" viewBox="0 0 964 328" fill="none" xmlns="http://www.w3.org/2000/svg">
<path fill-rule="evenodd" clip-rule="evenodd" d="M469.251 58.0861C446.671 74.9848 430.606 99.3898 427.34 121.756C423.325 149.255 435.447 171.789 459.273 181.117C464.756 183.262 465.935 183.096 464.017 180.446C451.231 162.779 455.815 131.981 473.695 115.415C479.829 109.732 488.269 105.108 495.667 103.38C496.939 103.083 496.941 103.129 495.603 102.315C481.416 93.6959 472.371 83.7443 469.46 73.5534C468.078 68.7176 468.129 63.3641 469.596 59.2956C470.233 57.5278 470.236 57.5175 470.104 57.527C470.039 57.531 469.656 57.7831 469.251 58.0861Z" fill="#6E7072"/>
<path fill-rule="evenodd" clip-rule="evenodd" d="M511.489 0.249004C510.531 0.682407 502.148 10.6665 497.365 17.0722C484.186 34.7176 478.414 47.2911 478.431 58.3194C478.46 75.8718 484.8 86.252 499.667 93.0838C503.756 94.9622 507.269 96.2202 515.723 98.831C524.859 101.652 530.615 103.655 535.261 105.627C552.438 112.92 562.523 123.124 566.605 137.339C571.508 154.412 569.526 170.831 561.338 180.971C559.824 182.847 560.345 182.94 563.445 181.346C581.855 171.88 594.182 156.039 597.329 137.801C601.627 112.894 588.419 78.0046 564.641 51.4565C563.734 50.4434 563.038 49.6147 563.095 49.6155C563.51 49.6179 570.143 48.8966 571.129 48.7415C574.394 48.2286 579.844 45.8103 585.824 42.2198C588.882 40.3844 592.512 37.9606 592.378 37.8429C591.738 37.283 583.57 33.9327 579.603 32.6031C574.69 30.9562 572.548 30.4751 565.674 29.4699C559.96 28.6341 551.835 29.1502 545.732 30.7375C544.267 31.1192 544.192 31.1255 543.929 30.8997C543.778 30.7709 541.604 28.7979 539.097 26.5164C527.015 15.5199 521.232 9.65184 515.757 2.8351C513.509 0.03667 512.845 -0.365711 511.489 0.249004ZM563.09 31.0126C565.151 31.1883 565.447 31.3021 564.455 31.5375C562.822 31.9255 560.453 32.891 560.453 33.1677C560.453 33.3188 560.367 33.3339 562.701 32.7494C566.128 31.8898 567.525 31.6385 568.354 31.7323C572.908 32.2508 579.611 34.2771 586.746 37.2918C588.355 37.9725 588.699 38.1642 588.554 38.2978C588.271 38.5594 584.66 40.7662 582.818 41.8032C573.82 46.8664 569.299 48.0513 565.594 46.3177C564.489 45.8008 562.403 43.8572 561.658 42.6516C561.336 42.13 561.42 42.7399 561.793 43.6377C562.355 44.988 563.063 46.0497 563.968 46.899L564.713 47.598L564.291 47.6664C564.058 47.703 562.602 47.8589 561.055 48.0123C557.195 48.3956 554.979 48.7137 550.677 49.5034C545.031 50.5396 542.637 50.2596 539.646 48.2151C538.976 47.7563 538.907 47.8533 539.304 48.7042C539.704 49.5622 540.655 50.5356 541.44 50.8887L542.031 51.1551L541.432 51.245C539.239 51.5766 535.927 51.2442 533.736 50.4728C532.999 50.2128 532.283 49.9654 532.144 49.9217C531.974 49.8676 532.103 50.1022 532.534 50.6318C533.836 52.2295 534.305 54.3663 533.629 55.6116L533.39 56.0498L532.992 55.2943C532.487 54.3321 531.158 52.6295 529.764 51.1583C529.166 50.5261 528.7 49.9885 528.728 49.9638C529.383 49.3976 536.249 46.0378 539.026 44.9237C544.565 42.7018 551.051 40.9364 557.501 39.8938C558.639 39.7101 559.603 39.524 559.644 39.4819C559.821 39.2918 552.67 39.5638 550.81 39.8174C543.223 40.8528 535.671 43.4509 529.217 47.2458L527.512 48.2493L527.364 47.6934C526.712 45.2298 525.58 42.4003 524.879 41.4795L524.548 41.0437L525.191 41.0445C527.146 41.0469 528.409 42.0902 529.127 44.2978L529.474 45.3642L529.842 44.1746C530.719 41.334 532.573 38.7987 534.941 37.2059C536.39 36.2301 536.39 36.2302 535.983 37.1192C535.559 38.0449 535.504 39.4564 535.86 40.2946C536.131 40.9308 536.181 40.8879 536.557 39.7006C537.38 37.1089 539.565 34.8019 542.202 33.7403C547.357 31.6663 556.604 30.4591 563.09 31.0126ZM507.286 44.258C507.533 44.5046 507.554 44.7042 507.554 46.7956V49.0652L507.119 49.3889C506.46 49.8788 499.438 53.9003 499.242 53.9003C499.147 53.9003 498.373 53.4995 497.52 53.0088C493.934 50.9484 493.683 51.3706 501.027 47.1201C506.55 43.9241 506.826 43.7976 507.286 44.258ZM516.532 47.1893C522.334 50.5316 522.56 50.6979 522.296 51.3921C522.145 51.7897 518.468 53.9456 518.101 53.8517C517.616 53.7277 510.087 49.3086 509.962 49.074C509.682 48.5515 509.799 44.7344 510.108 44.3431C510.558 43.7705 510.733 43.8485 516.532 47.1893ZM525.459 46.9579C525.845 47.1026 526.439 47.4732 526.779 47.7817L527.397 48.3424L526.281 49.078C524.866 50.0116 524.925 50.0028 524.518 49.3086C523.814 48.1054 522.57 47.3579 521.223 47.3269L520.745 47.3157L521.213 47.1114C522.587 46.5126 524.12 46.4569 525.459 46.9579ZM528.712 50.8816C529.131 52.3798 528.506 55.074 527.533 55.9536C527.287 56.1762 527.282 56.1563 527.344 55.1925C527.421 53.9933 527.162 53.0978 526.482 52.2064C526.226 51.8708 526.036 51.579 526.059 51.5567C526.275 51.3539 528.38 50.177 528.451 50.2207C528.501 50.2517 528.619 50.5499 528.712 50.8816ZM509.201 51.4398C510.094 51.8947 516.604 55.684 516.828 55.8796C517.13 56.1436 517.193 65.195 516.894 65.5862C516.629 65.9353 509.076 70.2383 508.728 70.2383C508.339 70.2383 501.037 66.0625 500.623 65.6029C500.279 65.2212 500.141 56.853 500.467 56.1389C500.595 55.8581 508.311 51.233 508.665 51.2243C508.724 51.2227 508.965 51.3205 509.201 51.4398ZM495.854 54.655C498.405 56.1055 498.179 55.5161 498.177 60.7146C498.175 65.9735 498.36 65.4447 496.051 66.7878C492.897 68.6216 493.09 69.0137 493.09 60.7862V54.1874L493.443 53.9098C493.923 53.5329 493.832 53.5051 495.854 54.655ZM524.194 54.0601C524.409 54.3106 524.428 54.8307 524.428 60.7703C524.428 68.9453 524.583 68.6336 521.43 66.8141C520.464 66.2566 519.598 65.7031 519.506 65.5831C519.296 65.3103 519.263 56.4347 519.471 56.0466C519.579 55.8446 521.643 54.5699 523.088 53.8112C523.487 53.6021 523.873 53.6895 524.194 54.0601ZM503.39 69.96C505.554 71.2062 507.375 72.3059 507.437 72.4038C507.499 72.5016 507.55 73.5871 507.552 74.8157L507.554 77.0495L507.201 77.3263C506.691 77.7279 506.995 77.871 501.049 74.4443C494.623 70.7393 494.703 70.8005 495.206 70.0093C495.371 69.7508 498.888 67.7134 499.187 67.7031C499.336 67.6983 501.227 68.7139 503.39 69.96ZM520.246 68.7322C523.43 70.5652 523.623 70.2733 516.532 74.368C510.548 77.8233 510.657 77.774 510.159 77.2754C509.72 76.8364 509.644 72.9016 510.065 72.3982C510.367 72.0363 517.851 67.7087 518.188 67.7007C518.329 67.6968 519.255 68.1612 520.246 68.7322Z" fill="#ED3028"/>
<path d="M40.2614 300.529C60.4793 300.529 75.9912 291.117 75.9912 270.376V270.027C75.9912 252.947 60.8279 246.672 47.756 242.315C37.647 238.829 28.7582 236.389 28.7582 231.16V230.812C28.7582 227.152 32.0697 224.363 38.5185 224.363C44.0958 224.363 51.2418 226.629 58.7363 230.289C60.4793 231.16 61.6993 231.509 63.6165 231.509C69.5424 231.509 74.2483 226.977 74.2483 221.051C74.2483 216.52 71.8082 213.034 67.9738 211.117C58.9106 206.585 48.8017 203.971 39.0414 203.971C20.2179 203.971 4.88017 214.603 4.88017 233.6V233.949C4.88017 252.075 19.695 258.176 32.7669 262.01C43.0501 265.147 52.1133 267.064 52.1133 272.816V273.165C52.1133 277.348 48.6274 280.136 40.9586 280.136C33.464 280.136 24.5751 277.348 15.6863 271.77C14.2919 270.899 12.3747 270.376 10.4575 270.376C4.53159 270.376 0 274.908 0 280.834C0 285.017 2.26579 288.154 5.05446 289.897C16.3834 297.217 28.7582 300.529 40.2614 300.529Z" fill="#040608"/>
<path d="M140.82 300.877C169.926 300.877 191.539 279.091 191.539 252.25V251.901C191.539 225.06 170.101 203.622 141.168 203.622C112.061 203.622 90.4493 225.409 90.4493 252.25V252.598C90.4493 279.439 111.887 300.877 140.82 300.877ZM141.168 278.045C126.528 278.045 116.593 266.019 116.593 252.25V251.901C116.593 238.132 125.656 226.454 140.82 226.454C155.46 226.454 165.395 238.481 165.395 252.25V252.598C165.395 266.367 156.332 278.045 141.168 278.045Z" fill="#040608"/>
<path d="M256.56 300.877C285.667 300.877 307.279 279.091 307.279 252.25V251.901C307.279 225.06 285.841 203.622 256.909 203.622C227.802 203.622 206.19 225.409 206.19 252.25V252.598C206.19 279.439 227.628 300.877 256.56 300.877ZM256.909 278.045C242.268 278.045 232.334 266.019 232.334 252.25V251.901C232.334 238.132 241.397 226.454 256.56 226.454C271.201 226.454 281.135 238.481 281.135 252.25V252.598C281.135 266.367 272.072 278.045 256.909 278.045Z" fill="#040608"/>
<path d="M327.682 286.585C327.682 293.905 333.608 299.831 340.928 299.831C348.249 299.831 354.175 293.905 354.175 286.585V183.753C354.175 176.433 348.249 170.507 340.928 170.507C333.608 170.507 327.682 176.433 327.682 183.753V286.585Z" fill="#040608"/>
<path d="M410.603 300.354C416.355 300.354 420.886 299.657 425.766 297.74C429.426 296.345 432.564 292.511 432.564 287.805C432.564 281.705 427.509 276.825 421.583 276.825C421.06 276.825 419.318 276.999 418.446 276.999C412.52 276.999 409.906 274.036 409.906 267.936V228.023H421.583C427.858 228.023 432.912 222.969 432.912 216.694C432.912 210.42 427.858 205.365 421.583 205.365H409.906V193.688C409.906 186.367 403.98 180.441 396.66 180.441C389.339 180.441 383.413 186.367 383.413 193.688V205.365H382.542C376.267 205.365 371.213 210.42 371.213 216.694C371.213 222.969 376.267 228.023 382.542 228.023H383.413V272.293C383.413 293.905 394.394 300.354 410.603 300.354Z" fill="#040608"/>
<path d="M477.886 300.529C490.784 300.529 499.673 295.823 506.122 288.677V288.851C506.122 294.428 511.176 299.831 518.845 299.831C525.991 299.831 531.743 294.254 531.743 287.108V244.581C531.743 232.032 528.605 221.749 521.634 214.777C515.011 208.154 504.553 204.319 490.087 204.319C477.712 204.319 468.649 206.062 460.283 209.2C456.1 210.768 453.137 214.777 453.137 219.483C453.137 225.583 458.017 230.289 464.117 230.289C465.337 230.289 466.383 230.115 467.952 229.592C473.006 228.023 478.932 226.977 486.252 226.977C499.499 226.977 506.296 233.078 506.296 244.058V245.627C499.673 243.361 492.876 241.792 483.464 241.792C461.329 241.792 445.817 251.204 445.817 271.596V271.945C445.817 290.42 460.283 300.529 477.886 300.529ZM485.904 282.228C477.364 282.228 471.438 278.045 471.438 270.899V270.55C471.438 262.184 478.409 257.653 489.738 257.653C496.187 257.653 502.113 259.047 506.645 261.139V265.844C506.645 275.43 498.279 282.228 485.904 282.228Z" fill="#040608"/>
<path d="M554.539 286.585C554.539 293.905 560.465 299.831 567.786 299.831C575.106 299.831 581.032 293.905 581.032 286.585V246.672C581.032 234.123 587.481 227.675 597.59 227.675C607.698 227.675 613.624 234.123 613.624 246.672V286.585C613.624 293.905 619.55 299.831 626.871 299.831C634.191 299.831 640.117 293.905 640.117 286.585V238.306C640.117 216.868 628.439 203.622 608.396 203.622C594.975 203.622 587.132 210.768 581.032 218.611V217.566C581.032 210.245 575.106 204.319 567.786 204.319C560.465 204.319 554.539 210.245 554.539 217.566V286.585Z" fill="#040608"/>
<path d="M665.92 286.411C665.92 293.905 671.846 299.831 679.341 299.831C686.835 299.831 692.761 293.905 692.761 286.411V262.184H713.153C740.517 262.184 762.478 247.544 762.478 219.308V218.96C762.478 194.036 744.874 176.781 715.768 176.781H679.341C671.846 176.781 665.92 182.707 665.92 190.202V286.411ZM692.761 238.306V201.008H713.502C726.922 201.008 735.288 207.457 735.288 219.483V219.831C735.288 230.289 727.445 238.306 714.025 238.306H692.761Z" fill="#ED3028"/>
<path d="M804.343 300.529C817.241 300.529 826.13 295.823 832.578 288.677V288.851C832.578 294.428 837.633 299.831 845.302 299.831C852.448 299.831 858.199 294.254 858.199 287.108V244.581C858.199 232.032 855.062 221.749 848.09 214.777C841.467 208.154 831.01 204.319 816.544 204.319C804.169 204.319 795.106 206.062 786.74 209.2C782.557 210.768 779.594 214.777 779.594 219.483C779.594 225.583 784.474 230.289 790.574 230.289C791.794 230.289 792.84 230.115 794.409 229.592C799.463 228.023 805.389 226.977 812.709 226.977C825.955 226.977 832.753 233.078 832.753 244.058V245.627C826.13 243.361 819.332 241.792 809.921 241.792C787.785 241.792 772.274 251.204 772.274 271.596V271.945C772.274 290.42 786.74 300.529 804.343 300.529ZM812.361 282.228C803.82 282.228 797.894 278.045 797.894 270.899V270.55C797.894 262.184 804.866 257.653 816.195 257.653C822.644 257.653 828.57 259.047 833.101 261.139V265.844C833.101 275.43 824.735 282.228 812.361 282.228Z" fill="#ED3028"/>
<path d="M898.641 327.195C914.501 327.195 922.344 320.049 930.187 301.051L962.78 222.794C963.303 221.574 964 218.611 964 216.52C964 209.548 958.248 204.319 951.451 204.319C944.654 204.319 940.819 208.851 938.728 214.428L919.207 268.633L898.989 214.254C896.723 207.98 892.889 204.319 886.266 204.319C878.946 204.319 873.194 209.548 873.194 217.043C873.194 218.786 873.891 221.4 874.588 223.143L906.484 297.043L905.612 299.134C903.172 303.84 900.906 304.712 896.2 304.712C894.283 304.712 892.889 304.363 890.623 303.666C889.577 303.317 888.357 302.969 886.266 302.969C880.863 302.969 875.808 307.326 875.808 313.775C875.808 320.223 880.34 323.361 884.174 324.755C888.532 326.324 892.715 327.195 898.641 327.195Z" fill="#ED3028"/>
</svg>
