<svg width="194" height="42" viewBox="0 0 194 42" fill="none" xmlns="http://www.w3.org/2000/svg">
<g clip-path="url(#clip0_26699_373016)">
<path d="M158.399 16.0263C158.241 14.7261 158.22 13.4128 158.336 12.1081C158.57 9.57427 159.299 7.20498 160.661 5.04895C160.852 4.7467 161.073 4.46527 161.365 4.25101C161.851 3.89436 162.278 3.96522 162.621 4.46359C162.891 4.85651 163.025 5.3072 163.135 5.7646C163.383 6.80131 163.476 7.85851 163.539 8.91973C163.582 9.65588 163.586 10.3974 163.735 11.1224C163.798 11.4297 163.877 11.7323 164.028 12.0097C164.297 12.5027 164.674 12.5951 165.133 12.2784C165.431 12.0739 165.659 11.7988 165.872 11.5107C166.317 10.9062 166.674 10.25 166.998 9.57427C167.571 8.37636 168.055 7.13782 168.596 5.92513C169.142 4.7017 169.687 3.47793 170.34 2.30688C170.57 1.88518 170.83 1.48109 171.119 1.09789C171.337 0.81378 171.575 0.548473 171.865 0.336564C172.221 0.0773025 172.611 -0.0382238 173.055 0.00879258C173.512 0.0574881 173.817 0.288876 173.993 0.705978C174.188 1.16674 174.235 1.65705 174.256 2.15005C174.294 3.0568 174.209 3.96119 174.105 4.86122C173.905 6.60519 173.585 8.33035 173.297 10.0606C173.188 10.71 173.108 11.3663 173.188 12.0302C173.281 12.8026 173.661 13.0065 174.322 12.6139C174.755 12.3563 175.122 12.0127 175.476 11.6568C176.317 10.8105 177.097 9.90573 177.915 9.03727C179.292 7.57607 180.684 6.13133 182.236 4.85316C182.855 4.34236 183.497 3.86346 184.208 3.48498C184.562 3.29591 184.931 3.14243 185.328 3.07124C186.147 2.92481 186.776 3.44837 186.804 4.28896C186.821 4.76752 186.711 5.22022 186.558 5.66587C186.291 6.44097 185.918 7.16401 185.515 7.87261C184.671 9.35934 183.703 10.7661 182.758 12.1877C182.122 13.1448 181.5 14.1117 180.977 15.138C180.693 15.6951 180.425 16.2597 180.302 16.8806C180.155 17.6248 180.476 17.9519 181.22 17.8005C181.622 17.7142 182.011 17.5715 182.374 17.3766C183.27 16.9065 184.158 16.4235 185.055 15.9564C186.603 15.1504 188.158 14.3589 189.8 13.7594C190.605 13.4655 191.419 13.2019 192.284 13.168C192.562 13.1573 192.839 13.1646 193.109 13.2466C193.815 13.4608 194.137 14.0408 193.945 14.7555C193.821 15.2182 193.568 15.6118 193.289 15.9896C192.756 16.711 192.124 17.3397 191.467 17.9439C190.161 19.1444 188.759 20.2275 187.346 21.2934C185.763 22.487 184.136 23.6191 182.591 24.8623C182 25.3375 181.424 25.8282 180.908 26.388C180.641 26.6761 180.398 26.9801 180.226 27.3354C179.919 27.9718 180.066 28.4584 180.674 28.81C181.123 29.0699 181.624 29.1794 182.123 29.2876C182.896 29.4531 183.682 29.5226 184.47 29.5562C185.224 29.5898 185.979 29.6113 186.73 29.6966C187.374 29.7695 187.999 29.9085 188.578 30.2165C189.063 30.4716 189.478 30.8422 189.788 31.2962C190.153 31.8271 190.129 32.3372 189.718 32.8349C189.414 33.2044 189.021 33.4542 188.599 33.6631C187.204 34.3536 185.732 34.7972 184.204 35.0675C182.363 35.3891 180.49 35.4744 178.628 35.3214C177.754 35.2522 176.881 35.1676 176.025 34.9658L176.028 34.9681C176.086 34.8476 176.143 34.7263 176.202 34.6064C177.488 31.987 177.893 29.2308 177.372 26.3588C176.818 23.3054 175.363 20.7343 173.043 18.6991C169.622 15.7002 165.628 14.6265 161.159 15.2851C160.213 15.4248 159.299 15.7025 158.399 16.0263Z" fill="#808C92"/>
<path d="M176.029 34.9706L176.025 34.9682C174.786 37.2969 173.012 39.1036 170.752 40.4278C169.031 41.4353 167.178 42.064 165.194 42.2625C160.479 42.7326 156.422 41.3124 153.117 37.8755C151.202 35.8847 150.024 33.4832 149.627 30.7381C149.049 26.7417 150.081 23.1785 152.655 20.0855C154.207 18.2213 156.145 16.8901 158.4 16.022C158.494 16.6849 158.586 17.3488 158.736 18.0034C158.894 18.6875 159.039 19.3759 159.296 20.0325C159.285 20.066 159.275 20.1023 159.264 20.1372L159.268 20.1295C159.121 20.144 158.995 20.2175 158.864 20.2766C157.872 20.726 156.981 21.3264 156.216 22.1062C154.288 24.0718 153.418 26.4297 153.752 29.1805C154.025 31.4353 155.093 33.2877 156.843 34.7059C159.153 36.5782 161.8 37.1911 164.694 36.5866C166.942 36.1188 168.77 34.9356 170.141 33.0647L170.16 33.0547L170.182 33.057C170.239 33.0906 170.293 33.1295 170.352 33.1577C172.157 34.0112 174.066 34.6207 176.029 34.9706V34.9706Z" fill="#808C92"/>
<path d="M47.0281 25.7917C48.7126 24.1209 51.6658 24.4024 52.8996 26.2185C52.9969 26.2028 53.0329 26.1134 53.0903 26.0506C54.036 25.0116 55.2238 24.6139 56.5972 24.7002C57.0306 24.7274 57.4573 24.801 57.864 24.9592C59.1391 25.4596 59.8264 26.4341 60.0725 27.7587C60.1214 28.0112 60.1469 28.2677 60.1485 28.525C60.1485 30.2922 60.1505 32.0593 60.1485 33.8265C60.1485 34.3258 59.8744 34.6801 59.4091 34.8148C58.745 35.0072 58.1003 34.5461 58.0796 33.8543C58.066 33.3959 58.0756 32.9372 58.0756 32.4774C58.0756 31.3255 58.0756 30.1733 58.0756 29.0214C58.0772 28.7196 58.0421 28.4187 57.9713 28.1254C57.6879 26.9587 56.7969 26.4798 55.6985 26.5722C54.247 26.6961 53.6796 27.8268 53.6103 28.8266C53.5893 29.1288 53.6006 29.4311 53.6003 29.7333C53.6003 31.0767 53.602 32.4173 53.6003 33.7596C53.6003 34.3154 53.3193 34.6882 52.8156 34.8215C52.1655 34.9935 51.5571 34.5609 51.5318 33.8862C51.5115 33.3388 51.5238 32.7904 51.5235 32.2407C51.5235 31.166 51.5235 30.0934 51.5235 29.0197C51.5243 28.7179 51.4892 28.4171 51.4188 28.1237C51.1318 26.9483 50.1997 26.4684 49.143 26.5745C47.8209 26.7088 47.2192 27.7351 47.0741 28.6167C47.0342 28.8706 47.0154 29.1274 47.0178 29.3844C47.0194 30.8607 47.0194 32.337 47.0178 33.8134C47.0178 34.3262 46.7554 34.6603 46.2941 34.8131C45.7064 35.0076 44.935 34.568 44.939 33.8056C44.9536 31.1553 44.9436 28.5045 44.9456 25.8538C44.9456 25.2665 45.335 24.84 45.8857 24.7956C46.4691 24.7489 46.9748 25.1627 47.0171 25.6926C47.0155 25.7175 47.0201 25.7396 47.0281 25.7917Z" fill="#808C92"/>
<path d="M87.7924 26.4916V25.2195C87.7924 24.2016 87.7901 23.184 87.7924 22.1665C87.7941 21.7245 87.9961 21.4276 88.3738 21.2812C88.7425 21.1395 89.1818 21.2372 89.4482 21.5193C89.5911 21.6624 89.676 21.854 89.6866 22.0566C89.6912 22.1574 89.6912 22.2581 89.6912 22.3589C89.6912 26.2055 89.6912 30.0521 89.6912 33.8987C89.6912 33.9659 89.6929 34.0331 89.6912 34.1002C89.6762 34.5254 89.4559 34.8414 89.0842 34.9734C88.7125 35.1054 88.2714 34.9959 88.0144 34.7074C87.8686 34.5507 87.7888 34.3432 87.7917 34.1284C87.7917 33.9535 87.7917 33.7785 87.7917 33.6062C87.6641 33.5844 87.6337 33.6734 87.5864 33.7234C85.8119 35.6336 83.0097 35.4697 81.2626 34.0831C80.1858 33.2281 79.6128 32.094 79.4624 30.7308C79.3604 29.8046 79.4334 28.8962 79.7868 28.0318C80.5245 26.2263 81.887 25.2215 83.7961 24.9932C85.2722 24.8168 86.5546 25.2699 87.6151 26.3318C87.6544 26.3707 87.6971 26.4057 87.7924 26.4916ZM81.3763 30.0004C81.3706 30.3245 81.4042 30.648 81.4763 30.9639C81.905 32.7734 83.6791 33.8359 85.4339 33.3147C86.8533 32.8936 87.7241 31.6762 87.8237 30.4027C87.9238 29.143 87.5424 28.0855 86.5277 27.3131C85.2066 26.3056 83.3047 26.4517 82.2273 27.6335C81.6186 28.3008 81.3796 29.1098 81.3763 30.0004Z" fill="#808C92"/>
<path d="M11.4238 30.6448C11.6721 31.8051 12.2738 32.6296 13.3766 32.9788C14.588 33.3627 15.7218 33.1404 16.7378 32.3602C16.8612 32.2655 16.9739 32.154 17.1045 32.0711C17.4476 31.8538 17.8029 31.8646 18.1416 32.0758C18.451 32.2689 18.5893 32.5601 18.5523 32.9305C18.5313 33.1327 18.4362 33.3197 18.2856 33.4551C17.3856 34.3087 16.3302 34.8246 15.0854 34.9441C14.1403 35.0351 13.2166 34.9582 12.3445 34.5784C10.6187 33.8261 9.60631 32.4963 9.33762 30.6223C9.11594 29.0758 9.45763 27.6586 10.4637 26.452C11.5438 25.1563 12.9482 24.5985 14.6244 24.7083C17.1989 24.8762 18.7357 26.8956 18.9527 29.0715C18.9684 29.2273 18.989 29.3831 18.9924 29.5389C19.006 30.225 18.6177 30.6314 17.9423 30.6441C17.8089 30.6468 17.6756 30.6441 17.5422 30.6441H11.4238V30.6448ZM16.8495 28.9972C16.6072 27.3443 15.4804 26.3777 13.9533 26.4802C12.7099 26.5638 11.4758 27.8091 11.4668 28.9972H16.8495Z" fill="#808C92"/>
<path d="M26.3446 29.7068C26.5112 29.5459 26.6199 29.4425 26.7269 29.3374C28.1424 27.9479 29.5574 26.558 30.9719 25.1677C31.3019 24.8423 31.672 24.6996 32.1203 24.8581C32.7437 25.078 32.9517 25.8179 32.538 26.3357C32.4514 26.4376 32.3579 26.5334 32.2583 26.6225C31.3863 27.4509 30.5135 28.2793 29.6401 29.1077C29.4228 29.3135 29.4401 29.2796 29.6221 29.4989C30.5722 30.6522 31.5225 31.8052 32.473 32.958C32.558 33.0614 32.6397 33.1665 32.727 33.269C32.8604 33.4279 32.9397 33.6257 32.9533 33.8334C32.9669 34.041 32.9141 34.2476 32.8027 34.4229C32.58 34.7587 32.1333 34.9266 31.7166 34.838C31.4269 34.7768 31.2249 34.5982 31.0439 34.3769C30.3732 33.557 29.7006 32.7388 29.0261 31.9223C28.6801 31.5018 28.3334 31.0827 27.976 30.6485C27.4543 31.1458 26.9496 31.6321 26.4376 32.111C26.3402 32.202 26.3446 32.3041 26.3446 32.4133C26.3446 32.8834 26.3516 33.3536 26.3426 33.8238C26.3272 34.6009 25.6015 35.0798 24.8918 34.7742C24.5038 34.6062 24.2777 34.304 24.2714 33.8647C24.2677 33.6075 24.2714 33.3502 24.2714 33.0923C24.2714 29.4573 24.2714 25.8222 24.2714 22.1872C24.2714 22.0193 24.2574 21.8534 24.3137 21.6895C24.4694 21.2341 24.9355 20.9309 25.4058 20.9859C25.9259 21.0464 26.3132 21.4474 26.3416 21.9575C26.3479 22.069 26.3446 22.1812 26.3446 22.2933V29.7085V29.7068Z" fill="#808C92"/>
<path d="M43.7499 29.4909C43.7426 32.1853 42.1785 34.207 39.8699 34.7836C38.0515 35.238 36.3534 34.9481 34.8919 33.7247C33.5218 32.5779 32.9584 31.0717 33.1251 29.2854C33.3321 27.0706 35.0529 25.2013 37.3728 24.7896C38.8805 24.5209 40.295 24.7674 41.5631 25.6476C43.0089 26.6528 43.7182 28.067 43.7499 29.4909ZM41.6374 29.8603C41.6374 27.9884 40.2243 26.5356 38.3952 26.5356C36.566 26.5356 35.2076 27.932 35.2049 29.8103C35.2026 31.6674 36.612 33.1152 38.4242 33.1175C40.256 33.1179 41.6361 31.7198 41.6374 29.8603Z" fill="#808C92"/>
<path d="M115.308 30.7791C115.475 32.1856 116.591 33.3009 117.935 33.4624C119.09 33.6014 120.109 33.3005 120.996 32.5446C121.205 32.3656 121.429 32.2272 121.715 32.2557C122.075 32.2913 122.345 32.4599 122.476 32.8126C122.601 33.1484 122.496 33.4308 122.251 33.6629C121.525 34.351 120.689 34.8383 119.701 35.0287C118.613 35.2386 117.534 35.2248 116.491 34.8061C114.738 34.1008 113.693 32.7954 113.402 30.9228C113.126 29.1453 113.581 27.5665 114.881 26.2971C115.927 25.2758 117.205 24.8675 118.657 24.9746C121.107 25.1559 122.573 27.0074 122.883 29.0251C122.931 29.323 122.953 29.6249 122.946 29.9268C122.933 30.3922 122.587 30.7445 122.125 30.7761C122.025 30.7828 121.925 30.7791 121.825 30.7791H115.308ZM115.314 29.2897H120.995C120.867 27.7113 119.723 26.6047 118.212 26.5815C116.745 26.559 115.459 27.7539 115.314 29.289V29.2897Z" fill="#808C92"/>
<path d="M143.466 33.991C143.366 33.9755 143.323 34.0551 143.266 34.1018C142.215 34.9632 140.996 35.2316 139.677 35.1093C139.001 35.0462 138.348 34.8306 137.766 34.4786C135.823 33.3187 135.919 30.4758 137.833 29.4045C138.495 29.0366 139.23 28.82 139.985 28.7702C141.097 28.6875 142.204 28.7443 143.292 29.0123C143.345 29.0218 143.398 29.0277 143.451 29.0298C143.51 28.6276 143.44 28.2171 143.253 27.857C143.066 27.497 142.77 27.2058 142.409 27.0252C141.816 26.7283 141.178 26.6756 140.527 26.7115C139.817 26.7487 139.119 26.9115 138.464 27.1924C138.267 27.2771 138.06 27.3137 137.846 27.2596C137.502 27.1713 137.239 26.8902 137.201 26.5701C137.176 26.391 137.209 26.2084 137.297 26.0504C137.385 25.8925 137.521 25.7679 137.686 25.696C138.05 25.531 138.428 25.3993 138.816 25.3027C140.128 24.9746 141.449 24.8916 142.763 25.2691C144.235 25.6906 145.178 26.7646 145.33 28.4887C145.347 28.6778 145.347 28.8686 145.348 29.0596C145.349 30.6925 145.349 32.3254 145.348 33.9584C145.348 34.1146 145.355 34.2707 145.303 34.4232C145.165 34.8262 144.799 35.0529 144.331 35.0203C143.904 34.9904 143.598 34.7291 143.515 34.3167C143.492 34.2073 143.481 34.0974 143.466 33.991ZM143.528 31.0693C143.528 30.9574 143.521 30.8453 143.53 30.7334C143.54 30.5957 143.482 30.535 143.351 30.5037C142.317 30.2555 141.273 30.1447 140.213 30.2468C139.78 30.2888 139.364 30.4114 138.992 30.6518C138.041 31.2661 138.047 32.5849 139.003 33.1914C139.191 33.3108 139.395 33.4014 139.609 33.46C140.529 33.7112 141.419 33.6085 142.258 33.1726C143.097 32.7367 143.563 32.0526 143.528 31.0693Z" fill="#808C92"/>
<path d="M101.701 30.0617C101.735 32.2268 100.254 34.3882 97.7457 34.9894C96.1375 35.3746 94.6001 35.1502 93.2373 34.1723C91.6345 33.0227 90.9308 31.4134 91.1585 29.4569C91.3822 27.5353 92.4519 26.1782 94.2041 25.4125C95.7022 24.7576 97.2376 24.762 98.7241 25.4558C100.658 26.3602 101.638 27.9218 101.701 30.0617ZM99.7471 30.0909C99.7962 28.4118 98.5471 26.6423 96.3916 26.6319C94.2884 26.6235 93.0553 28.2775 93.0603 30.0208C93.0653 31.9491 94.5168 33.4523 96.4022 33.4597C98.3124 33.4704 99.7431 32.0284 99.7471 30.0923V30.0909Z" fill="#808C92"/>
<path d="M105.032 26.2251C105.122 26.2207 105.158 26.1421 105.209 26.0908C106.088 25.2149 107.167 24.9036 108.371 24.96C108.782 24.9749 109.189 25.0493 109.578 25.181C110.988 25.6713 111.757 26.6899 112 28.1434C112.048 28.464 112.07 28.7883 112.064 29.1126C112.059 30.7004 112.062 32.2885 112.062 33.8767C112.062 33.966 112.066 34.0557 112.062 34.1453C112.027 34.6652 111.639 35.0219 111.112 35.0222C110.585 35.0225 110.19 34.6716 110.148 34.1568C110.139 34.056 110.143 33.9553 110.143 33.8545C110.143 32.3115 110.143 30.7682 110.143 29.2247C110.147 28.9339 110.114 28.6438 110.043 28.3617C109.789 27.382 109.094 26.7873 108.077 26.6865C107.677 26.6469 107.278 26.6623 106.888 26.7725C105.789 27.0821 105.068 28.0033 105.017 29.1871C104.996 29.667 105.008 30.1486 105.007 30.6312C105.007 31.773 104.988 32.9128 105.014 34.053C105.029 34.77 104.341 35.2556 103.61 34.9235C103.331 34.7968 103.16 34.5641 103.118 34.2518C103.105 34.1403 103.099 34.0281 103.102 33.916C103.102 31.3439 103.102 28.7718 103.102 26.1996C103.102 26.1213 103.098 26.0427 103.103 25.9645C103.139 25.4312 103.546 25.0577 104.074 25.0682C104.608 25.0806 104.989 25.4628 105.008 26.0004C105.009 26.0743 104.98 26.1536 105.032 26.2251Z" fill="#808C92"/>
<path d="M71.0748 26.2947C71.5815 25.755 72.1025 25.3842 72.7289 25.1821C73.8046 24.8351 74.8797 24.8543 75.9211 25.2882C77.1922 25.8181 77.8616 26.833 78.0703 28.1763C78.1173 28.5086 78.1381 28.8442 78.1326 29.1798C78.1286 30.7461 78.1306 32.3128 78.1306 33.8791C78.1306 33.9684 78.1353 34.0584 78.1273 34.1477C78.08 34.6851 77.6796 35.036 77.1372 35.0209C76.6002 35.0061 76.2145 34.6253 76.2128 34.0826C76.2079 32.5154 76.2079 30.9491 76.2128 29.3836C76.2128 29.0478 76.1955 28.712 76.1128 28.3852C75.8651 27.3989 75.1847 26.8028 74.163 26.6886C73.684 26.6349 73.2089 26.6691 72.7502 26.8347C71.7572 27.1927 71.1111 28.1108 71.0804 29.2335C71.0638 29.838 71.0751 30.4425 71.0748 31.047C71.0748 32.0545 71.0604 33.062 71.0798 34.0695C71.0921 34.7042 70.4864 35.2476 69.7193 34.9427C69.4333 34.8288 69.2573 34.6068 69.1883 34.3009C69.1629 34.1692 69.1524 34.035 69.157 33.9009C69.157 31.339 69.157 28.7768 69.157 26.2144C69.1536 26.1248 69.1553 26.0351 69.162 25.9457C69.2213 25.4108 69.633 25.0514 70.16 25.0726C70.7574 25.0954 71.1124 25.5965 71.0754 26.024C71.0698 26.0854 71.0748 26.1506 71.0748 26.2947Z" fill="#808C92"/>
<path d="M6.74663 28.8079C6.74663 30.4634 6.74663 32.1188 6.74663 33.7742C6.74663 34.3226 6.43327 34.7145 5.91323 34.8351C5.28518 34.9825 4.65914 34.5147 4.62013 33.8676C4.6138 33.7668 4.61847 33.6661 4.61847 33.5653V23.9686C4.61847 23.5361 4.61847 23.5361 4.17243 23.5361C3.20592 23.5361 2.23918 23.5361 1.27221 23.5361C1.10554 23.5361 0.941522 23.5324 0.781844 23.4662C0.388814 23.303 0.126794 22.9158 0.157463 22.5259C0.190799 22.1148 0.508156 21.7363 0.91252 21.6467C1.05401 21.6177 1.1982 21.6043 1.34255 21.6067C4.24144 21.6043 7.14033 21.6035 10.0392 21.6044C10.3342 21.6044 10.6159 21.642 10.8499 21.8445C11.1436 22.0987 11.28 22.4154 11.1796 22.8006C11.0733 23.2059 10.7923 23.4424 10.3862 23.5189C10.2676 23.5414 10.1426 23.5347 10.0195 23.5351C9.03102 23.5351 8.04206 23.5351 7.05265 23.5351C6.72629 23.5351 6.7443 23.5136 6.7443 23.841C6.74607 25.4969 6.74685 27.1525 6.74663 28.8079Z" fill="#808C92"/>
<path d="M127.514 25.0053C128.62 25.013 129.663 25.2857 130.647 25.7871C131.055 25.9943 131.255 26.3718 131.174 26.7365C131.072 27.1972 130.6 27.4928 130.129 27.3913C129.964 27.3557 129.818 27.2735 129.67 27.1986C128.945 26.8352 128.189 26.5994 127.371 26.6119C127.071 26.6155 126.774 26.6796 126.499 26.8003C126.292 26.8855 126.114 27.0276 125.983 27.2103C125.702 27.6133 125.766 28.0606 126.148 28.3703C126.322 28.5117 126.52 28.6111 126.725 28.6984C127.247 28.9214 127.792 29.0678 128.336 29.225C128.794 29.3593 129.247 29.5037 129.683 29.7022C129.906 29.8018 130.12 29.9211 130.323 30.0588C131.281 30.7211 131.579 31.5607 131.362 32.7119C131.177 33.6888 130.557 34.3293 129.679 34.7346C129.062 35.0194 128.404 35.1306 127.735 35.1202C126.395 35.1061 125.087 34.7067 123.965 33.9689C123.742 33.8242 123.571 33.6435 123.528 33.3671C123.475 33.0249 123.582 32.7438 123.868 32.5521C124.168 32.3506 124.491 32.3304 124.813 32.5101C124.987 32.6075 125.153 32.7216 125.327 32.819C126.054 33.233 126.869 33.4666 127.704 33.5004C128.082 33.5149 128.458 33.4642 128.811 33.3124C129.072 33.2005 129.295 33.038 129.443 32.7878C129.724 32.3133 129.623 31.8139 129.179 31.4861C128.833 31.2319 128.432 31.0982 128.029 30.976C127.488 30.8118 126.942 30.6654 126.401 30.5018C125.998 30.378 125.608 30.2124 125.239 30.0078C123.391 28.9943 123.758 26.7774 124.878 25.8549C125.541 25.3088 126.311 25.0711 127.147 25.0063C127.269 24.9972 127.392 25.0053 127.514 25.0053Z" fill="#808C92"/>
<path d="M20.2646 27.9206C20.2646 25.9637 20.2729 24.0068 20.2586 22.0499C20.2549 21.5488 20.5856 21.1139 21.066 21.0071C21.6717 20.8728 22.2764 21.3013 22.3347 21.9219C22.3441 22.0227 22.3394 22.1234 22.3394 22.2242C22.3394 26.0262 22.3394 29.8282 22.3394 33.63C22.3394 33.7644 22.3454 33.9007 22.3207 34.031C22.2722 34.2865 22.1293 34.5139 21.9209 34.6674C21.7124 34.8209 21.454 34.8891 21.1976 34.8582C20.6416 34.7977 20.2679 34.3937 20.2669 33.8251C20.262 31.8567 20.2612 29.8885 20.2646 27.9206Z" fill="#808C92"/>
<path d="M66.7811 28.4257C66.7811 30.2145 66.7811 32.0033 66.7811 33.7919C66.7811 33.8927 66.7854 33.9934 66.7778 34.0942C66.7357 34.6516 66.3404 35.0237 65.795 35.0227C65.2616 35.0227 64.8543 34.6278 64.8196 34.0824C64.8146 34.0045 64.8196 33.9259 64.8196 33.8473C64.8196 30.2139 64.8196 26.5805 64.8196 22.9473C64.8196 22.8025 64.8129 22.6581 64.8499 22.514C64.972 22.0392 65.3673 21.7416 65.8587 21.7671C66.3411 21.7907 66.7091 22.1366 66.7688 22.6262C66.7798 22.7378 66.7842 22.8499 66.7818 22.962C66.7813 24.7822 66.7811 26.6034 66.7811 28.4257Z" fill="#808C92"/>
<path d="M134.942 30.0567C134.942 31.3762 134.94 32.6956 134.944 34.0151C134.944 34.2452 134.912 34.4601 134.775 34.6492C134.55 34.9598 134.138 35.0962 133.73 34.9957C133.367 34.9064 133.102 34.6075 133.049 34.2176C133.035 34.1062 133.03 33.994 133.031 33.8818C133.031 31.3212 133.031 28.7606 133.031 26.2C133.031 25.9985 133.034 25.797 133.122 25.6093C133.215 25.4165 133.368 25.26 133.558 25.1642C133.748 25.0683 133.964 25.0385 134.173 25.0793C134.631 25.168 134.94 25.5236 134.94 25.9961C134.945 27.3505 134.942 28.7036 134.942 30.0567Z" fill="#808C92"/>
<path d="M170.141 33.0657C166.932 31.4917 164.393 29.1365 162.335 26.2333C161.079 24.4554 160.088 22.5023 159.393 20.4358C159.358 20.332 159.347 20.2158 159.268 20.1295L159.264 20.1372L159.344 20.0365C159.897 19.879 160.444 19.6929 161.011 19.5898C164.608 18.937 168.345 20.3921 170.39 23.5144C172.257 26.3629 172.226 30.0033 170.327 32.8344C170.277 32.9082 170.23 32.9835 170.181 33.058L170.159 33.0557L170.141 33.0657Z" fill="#808C92"/>
<path d="M159.344 20.0363L159.264 20.137C159.275 20.1034 159.285 20.0672 159.296 20.0322C159.312 20.0329 159.328 20.0342 159.344 20.0363Z" fill="#FEFEFE"/>
</g>
<defs>
<clipPath id="clip0_26699_373016">
<rect width="194" height="42" fill="white"/>
</clipPath>
</defs>
</svg>
